<svg width="197" height="78" viewBox="0 0 197 78" fill="none" xmlns="http://www.w3.org/2000/svg">
	<path d="M29.7864 77.9725V32.3115" stroke="#009CDE" />
	<path d="M77.1381 77.9725V32.3115" stroke="#009CDE" />
	<path d="M119.146 77.9725V32.3115" stroke="#009CDE" />
	<path fill-rule="evenodd" clip-rule="evenodd" d="M0 46.5674H3.31318C5.9494 46.5674 8.09491 46.9256 10.1759 48.7415C12.1818 50.5074 13.0915 52.9215 13.0915 55.5971C13.0915 58.2262 12.1567 60.5436 10.2189 62.3095C8.11998 64.2222 6.02104 64.5803 3.26662 64.5803H0V46.5674ZM3.38124 62.7142C5.53033 62.7142 7.3284 62.4062 8.93664 60.8517C10.3837 59.4655 11.1323 57.5815 11.1323 55.5721C11.1323 53.5197 10.3622 51.5354 8.84351 50.1743C7.23527 48.7165 5.45869 48.4299 3.38124 48.4299H1.95925V62.7142H3.38124Z" fill="#004590" />
	<path fill-rule="evenodd" clip-rule="evenodd" d="M49.4971 59.4655L47.3731 64.5803H45.224L53.3476 45.7041L61.2598 64.5803H59.0892L57.0118 59.4655H49.4971ZM53.301 50.3891L50.2923 57.6029H56.2417L53.301 50.3891Z" fill="#004590" />
	<path d="M98.8761 64.5803H96.9169V48.4299H92.6688V46.5674H103.171V48.4299H98.8761V64.5803Z" fill="#004590" />
	<path fill-rule="evenodd" clip-rule="evenodd" d="M138.853 59.4655L136.729 64.5803H134.583L142.703 45.7041L150.615 64.5803H148.445L146.367 59.4655H138.853ZM142.657 50.3891L139.644 57.6029H145.597L142.657 50.3891Z" fill="#004590" />
	<path d="M158.811 21.9062C169.62 27.7375 180.061 35.2951 189.729 44.5075C186.269 55.1634 181.77 65.1675 176.419 74.3835C174.001 54.5617 167.658 36.7601 158.811 21.9062Z" fill="url(#paint0_linear)" />
	<path d="M168.267 0C179.467 11.3221 189.364 25.3055 197 41.5813C191.312 54.1177 184.284 65.404 176.308 75.2612C179.997 49.1676 176.967 23.2782 168.267 0Z" fill="#004590" />
	<defs>
		<linearGradient id="paint0_linear" x1="158.809" y1="21.191" x2="189.73" y2="21.191" gradientUnits="userSpaceOnUse">
			<stop stop-color="#2899C3" />
			<stop offset="0.641" stop-color="#184090" />
		</linearGradient>
	</defs>
</svg>
