<svg width="248" height="44" viewBox="0 0 248 44" fill="none" xmlns="http://www.w3.org/2000/svg">
<path d="M76.5216 43.3442C84.0552 43.3442 87.8392 39.5602 87.8392 33.3682V19.9521H82.6792V32.9897C82.6792 36.9114 81.2344 38.3218 76.5216 38.3218C71.8432 38.3218 70.364 36.9114 70.364 32.9897V19.9521H65.204V33.3682C65.204 39.5602 69.0224 43.3442 76.5216 43.3442Z" fill="#324873"/>
<path d="M104.094 43.0002V35.3978L114.483 19.9521H108.084L103.681 26.6945L101.755 29.7906H101.376L99.4497 26.6945L95.0465 19.9521H88.6825L98.8993 35.3633V43.0002H104.094Z" fill="#324873"/>
<path d="M120.624 43.0002V34.297C120.624 31.373 121.794 30.0658 125.062 30.0658C128.227 30.0658 129.362 31.2354 129.362 33.9874V43.0002H134.522V32.2674C134.522 28.449 132.286 25.4217 127.573 25.4217C123.067 25.4217 121.003 28.1737 120.555 31.0634H120.246V25.7657H115.464V43.0002H120.624Z" fill="#324873"/>
<path d="M142.292 24.0113V19.9521H137.132V24.0113H142.292ZM142.292 43.0002V25.7657H137.132V43.0002H142.292Z" fill="#324873"/>
<path d="M152.699 43.3442C156.655 43.3442 158.925 41.6242 159.579 38.2186H159.854V43.0002H164.67V19.9521H159.51V30.341H159.2C158.616 27.4513 156.517 25.4217 152.424 25.4217C147.298 25.4217 144.374 28.8961 144.374 34.4002C144.374 39.8354 147.332 43.3442 152.699 43.3442ZM149.603 34.4002C149.603 31.2353 151.151 30.1346 154.453 30.1346C157.756 30.1346 159.51 31.2353 159.51 34.2281V34.5034C159.51 37.4962 157.721 38.6314 154.453 38.6314C151.151 38.6314 149.603 37.5306 149.603 34.4002Z" fill="#324873"/>
<path d="M172.698 43.3442C176.516 43.3442 178.924 41.7274 179.715 39.0442H179.991V43.0002H184.807V32.8866C184.807 28.3801 182.089 25.4217 176.344 25.4217C170.668 25.4217 167.091 28.3801 167.091 32.6458V32.749H172.285V32.6114C172.285 30.6506 173.351 29.9626 175.966 29.9626C178.718 29.9626 179.715 30.5817 179.715 32.8178V33.4714L172.319 34.2281C168.639 34.6065 166.747 36.189 166.747 38.7346C166.747 41.6242 168.983 43.3442 172.698 43.3442ZM171.941 38.3906C171.941 37.565 172.491 37.221 173.73 37.1178L179.715 36.4298C179.578 38.8722 177.686 39.6978 174.177 39.6978C172.663 39.6978 171.941 39.3194 171.941 38.3906Z" fill="#324873"/>
<path d="M195.128 43.3442C199.084 43.3442 201.354 41.6242 202.008 38.2186H202.283V43.0002H207.099V19.9521H201.939V30.341H201.629C201.045 27.4513 198.946 25.4217 194.852 25.4217C189.727 25.4217 186.803 28.8961 186.803 34.4002C186.803 39.8354 189.761 43.3442 195.128 43.3442ZM192.032 34.4002C192.032 31.2353 193.58 30.1346 196.882 30.1346C200.184 30.1346 201.939 31.2353 201.939 34.2281V34.5034C201.939 37.4962 200.15 38.6314 196.882 38.6314C193.58 38.6314 192.032 37.5306 192.032 34.4002Z" fill="#324873"/>
<path d="M218.98 43.3442C224.449 43.3442 228.096 40.7298 228.096 36.9802V36.6018H222.936V36.9458C222.936 38.425 221.869 39.2162 218.808 39.2162C215.471 39.2162 214.232 38.081 214.095 35.4322H228.13C228.199 34.8474 228.268 34.4002 228.268 33.781C228.268 28.3801 224.518 25.4217 218.876 25.4217C213.2 25.4217 209.313 28.8961 209.313 34.4002C209.313 40.5234 213.235 43.3442 218.98 43.3442ZM218.773 29.4466C221.8 29.4466 223.176 30.4442 223.314 32.7146H214.164C214.404 30.4785 215.712 29.4466 218.773 29.4466Z" fill="#324873"/>
<path d="M239.159 43.3442C244.491 43.3442 247.69 41.2114 247.69 37.9778C247.69 35.1226 245.97 33.5746 241.361 33.0586L237.68 32.6114C235.409 32.3362 234.928 31.9578 234.928 31.0634C234.928 29.9626 235.581 29.5154 238.161 29.5154C241.326 29.5154 242.014 30.2377 242.014 31.6481V31.8546H247.174V31.7514C247.174 27.5545 243.975 25.4217 238.333 25.4217C232.416 25.4217 229.837 27.8298 229.837 30.857C229.837 33.7466 231.763 35.2946 235.203 35.673L240.053 36.2578C242.083 36.533 242.599 36.8082 242.599 37.7714C242.599 38.8034 241.945 39.2506 239.193 39.2506C236.269 39.2506 235.306 38.8378 235.306 37.2898V36.9802H230.146V37.0834C230.146 41.0738 233.345 43.3442 239.159 43.3442Z" fill="#324873"/>
<path d="M73.043 15.2102C77.432 15.2102 80.225 13.0262 80.225 9.45621V9.14121H76.718V9.45621C76.718 11.3042 75.668 12.1862 73.106 12.1862C70.019 12.1862 68.864 11.0942 68.864 7.96522C68.864 4.83621 70.019 3.74421 73.106 3.74421C75.668 3.74421 76.718 4.62621 76.718 6.47422V6.78921H80.225V6.47422C80.225 2.90421 77.411 0.720215 73.043 0.720215C68.402 0.720215 65.525 3.57621 65.525 7.96522C65.525 12.3542 68.402 15.2102 73.043 15.2102Z" fill="#324873"/>
<path d="M87.197 15.2102C90.788 15.2102 93.203 13.0682 93.203 9.75022C93.203 6.39021 90.788 4.26921 87.197 4.26921C83.606 4.26921 81.191 6.39021 81.191 9.75022C81.191 13.0682 83.606 15.2102 87.197 15.2102ZM87.197 12.4172C85.055 12.4172 84.32 11.5982 84.32 9.75022C84.32 7.90221 85.055 7.04121 87.197 7.04121C89.318 7.04121 90.074 7.90221 90.074 9.75022C90.074 11.5982 89.318 12.4172 87.197 12.4172Z" fill="#324873"/>
<path d="M97.6394 15.0002V9.68721C97.6394 7.90221 98.3534 7.10422 100.348 7.10422C102.28 7.10422 102.973 7.81822 102.973 9.49821V15.0002H106.123V8.44822C106.123 6.11721 104.758 4.26921 101.881 4.26921C99.1304 4.26921 97.8704 5.94921 97.5974 7.71322H97.4084V4.47921H94.4894V15.0002H97.6394Z" fill="#324873"/>
<path d="M115.55 15.0002L120.359 4.47921H116.915L113.744 11.9342H113.534L110.384 4.47921H106.877L111.665 15.0002H115.55Z" fill="#324873"/>
<path d="M126.777 15.2102C130.116 15.2102 132.342 13.6142 132.342 11.3252V11.0942H129.192V11.3042C129.192 12.2072 128.541 12.6902 126.672 12.6902C124.635 12.6902 123.879 11.9972 123.795 10.3802H132.363C132.405 10.0232 132.447 9.75022 132.447 9.37222C132.447 6.07522 130.158 4.26921 126.714 4.26921C123.249 4.26921 120.876 6.39021 120.876 9.75022C120.876 13.4882 123.27 15.2102 126.777 15.2102ZM126.651 6.72621C128.499 6.72621 129.339 7.33521 129.423 8.72121H123.837C123.984 7.35621 124.782 6.72621 126.651 6.72621Z" fill="#324873"/>
<path d="M136.932 15.0002V8.91022C136.932 7.58722 137.436 6.93621 138.843 6.93621C140.124 6.93621 140.586 7.44022 140.586 8.59522V9.68721H143.736V7.94421C143.736 5.88621 142.77 4.26921 140.418 4.26921C138.297 4.26921 137.184 5.57121 136.89 7.27221H136.701V4.47921H133.782V15.0002H136.932Z" fill="#324873"/>
<path d="M150.19 15.2102C153.445 15.2102 155.398 13.9082 155.398 11.9342C155.398 10.1912 154.348 9.24621 151.534 8.93122L149.287 8.65822C147.901 8.49022 147.607 8.25922 147.607 7.71322C147.607 7.04122 148.006 6.76821 149.581 6.76821C151.513 6.76821 151.933 7.20921 151.933 8.07021V8.19622H155.083V8.13321C155.083 5.57121 153.13 4.26921 149.686 4.26921C146.074 4.26921 144.499 5.73921 144.499 7.58721C144.499 9.35121 145.675 10.2962 147.775 10.5272L150.736 10.8842C151.975 11.0522 152.29 11.2202 152.29 11.8082C152.29 12.4382 151.891 12.7112 150.211 12.7112C148.426 12.7112 147.838 12.4592 147.838 11.5142V11.3252H144.688V11.3882C144.688 13.8242 146.641 15.2102 150.19 15.2102Z" fill="#324873"/>
<path d="M162.276 15.2102C165.867 15.2102 168.282 13.0682 168.282 9.75022C168.282 6.39021 165.867 4.26921 162.276 4.26921C158.685 4.26921 156.27 6.39021 156.27 9.75022C156.27 13.0682 158.685 15.2102 162.276 15.2102ZM162.276 12.4172C160.134 12.4172 159.399 11.5982 159.399 9.75022C159.399 7.90221 160.134 7.04121 162.276 7.04121C164.397 7.04121 165.153 7.90221 165.153 9.75022C165.153 11.5982 164.397 12.4172 162.276 12.4172Z" fill="#324873"/>
<path d="M172.719 15.0002V8.91022C172.719 7.58722 173.223 6.93621 174.63 6.93621C175.911 6.93621 176.373 7.44022 176.373 8.59522V9.68721H179.523V7.94421C179.523 5.88621 178.557 4.26921 176.205 4.26921C174.084 4.26921 172.971 5.57121 172.677 7.27221H172.488V4.47921H169.569V15.0002H172.719Z" fill="#324873"/>
<path d="M188.607 15.2102C191.022 15.2102 192.409 14.1602 192.808 12.0812H192.976V15.0002H195.916V0.930215H192.766V7.27221H192.576C192.22 5.50821 190.938 4.26921 188.439 4.26921C185.31 4.26921 183.525 6.39021 183.525 9.75022C183.525 13.0682 185.331 15.2102 188.607 15.2102ZM186.717 9.75022C186.717 7.81822 187.662 7.14621 189.678 7.14621C191.694 7.14621 192.766 7.81821 192.766 9.64521V9.81322C192.766 11.6402 191.673 12.3332 189.678 12.3332C187.662 12.3332 186.717 11.6612 186.717 9.75022Z" fill="#324873"/>
<path d="M203.168 15.2102C206.507 15.2102 208.733 13.6142 208.733 11.3252V11.0942H205.583V11.3042C205.583 12.2072 204.932 12.6902 203.063 12.6902C201.026 12.6902 200.27 11.9972 200.186 10.3802H208.754C208.796 10.0232 208.838 9.75022 208.838 9.37222C208.838 6.07522 206.549 4.26921 203.105 4.26921C199.64 4.26921 197.267 6.39021 197.267 9.75022C197.267 13.4882 199.661 15.2102 203.168 15.2102ZM203.042 6.72621C204.89 6.72621 205.73 7.33521 205.814 8.72121H200.228C200.375 7.35621 201.173 6.72621 203.042 6.72621Z" fill="#324873"/>
<path d="M0.000152079 41.6476H11.4656C11.4305 36.55 13.5693 34.3306 17.1457 34.3306C19.3195 34.3306 20.5818 35.0242 23.6322 37.4516C28.7513 41.5089 32.1874 43 36.6053 43C45.8618 43 52.1379 36.4807 51.9977 23.7194H40.5674C40.5674 28.7476 38.5337 31.4177 34.9574 31.4177C32.7835 31.4177 30.82 30.4121 27.8046 27.9847C23.1764 24.2395 19.8455 22.6097 15.1471 22.6097C5.99582 22.6097 -0.0349107 28.5048 0.000152079 41.6476ZM0.000152079 19.0379H11.4656C11.4305 13.9403 13.5693 11.721 17.1457 11.721C19.3195 11.721 20.5818 12.4145 23.6322 14.8419C28.7513 18.8992 32.1874 20.3903 36.6053 20.3903C45.8618 20.3903 52.1379 13.871 51.9977 1.10968H40.5674C40.5674 6.1379 38.5337 8.80806 34.9574 8.80806C32.7835 8.80806 30.82 7.80242 27.8046 5.375C23.1764 1.62984 19.8455 0 15.1471 0C5.99582 0 -0.0349107 5.89516 0.000152079 19.0379Z" fill="url(#paint0_linear)"/>
<defs>
<linearGradient id="paint0_linear" x1="48.425" y1="51.1646" x2="4.25067" y2="54.2936" gradientUnits="userSpaceOnUse">
<stop stop-color="#37ABDD"/>
<stop offset="1" stop-color="#5A87E5"/>
</linearGradient>
</defs>
</svg>
